# xmcd CD database file
#
# Track frame offsets:
#	150
#	23555
#	44245
#	67650
#
# Disc length: 1172 seconds
#
# Revision: 0
# Processed by: cddbd v1.5.2PL0 Copyright (c) Steve Scherf et al.
# Submitted via: CD2WAV32(JP) R3.22
#
DISCID=2b049204
DTITLE=新居昭乃 - 金の波 千の波
DYEAR=2008
DGENRE=Anime
TTITLE0=金の波 千の波
TTITLE1=鳥かごの夢
TTITLE2=金の波 千の波 （w/o akino）
TTITLE3=鳥かごの夢 （w/o akino）
EXTD=
EXTT0=「ARIA The ORIGINATION」 エンディングテーマ
EXTT1=
EXTT2=
EXTT3=
PLAYORDER=
